# xmcd
#
# Track frame offsets:
#	150
#	11010
#	22485
#	35092
#	45652
#	59017
#	71775
#	85812
#	95525
#	109207
#	117205
#	129180
#	139390
#	149437
#	163767
#	176497
#	188652
#	199187
#	212375
#	224207
#
# Disc length: 3122 seconds
#
# Revision: 6
# Processed by: cddbd v1.5.1PL0 Copyright (c) Steve Scherf et al.
# Submitted via: EasyCDDAExtractor 7.7.1.2
#
DISCID=3b0c3014
DTITLE=Charley Pride - A Decade Of Charley Pride (Souvenir Edition)
DYEAR=1975
DGENRE=Country
TTITLE0=Mississipi Cotton Pickin' Delta Town
TTITLE1=Hello Darlin'
TTITLE2=Distant Drums
TTITLE3=A Brand New Bed Of Roses
TTITLE4=I Ain't All Bad
TTITLE5=She's Too Good To Be True
TTITLE6=The Green, Green Grass Of Home
TTITLE7=Busted
TTITLE8=Hope You're Feelin' Me (Like I'm Feeling You)
TTITLE9=Guess Things Happen That Way
TTITLE10=It's Gonna Take A Little Bit Longer
TTITLE11=Before The Next Teardrop Falls
TTITLE12=Then Who Am I
TTITLE13=Amazing Love
TTITLE14=I'd Rather Love You
TTITLE15=Let The Chips Fall
TTITLE16=Comin' Down With Love
TTITLE17=Mama Don't Cry For Me
TTITLE18=Louisiana Man
TTITLE19=Cotton Fields
EXTD=ID3G:   2
EXTT0=
EXTT1=
EXTT2=
EXTT3=
EXTT4=
EXTT5=
EXTT6=
EXTT7=
EXTT8=
EXTT9=
EXTT10=
EXTT11=
EXTT12=
EXTT13=
EXTT14=
EXTT15=
EXTT16=
EXTT17=
EXTT18=
EXTT19=
PLAYORDER=
